# xmcd CD database file
#
# Track frame offsets:
#	150
#	22880
#	42322
#	68353
#	92534
#	112545
#	131787
#	154463
#	177697
#	200739
#	222145
#	238077
#	261030
#	286187
#	309359
#	324783
#
# Disc length: 4660 seconds
#
# Revision: 0
# Processed by: cddbd v1.5.2PL0 Copyright (c) Steve Scherf et al.
# Submitted via: CDex 1.70beta2
#
DISCID=d6123210
DTITLE=Various Artist - Montecarlo Nights - Nouveau Beat 02 - CD 2
DYEAR=2001
DGENRE=Jazz
TTITLE0=G Club Presents Banda Sonora - Guitarra G
TTITLE1=Llorca - Indigo Blues
TTITLE2=Nova Frontiera - Calma
TTITLE3=Dubtribe Sound System - Do It Now
TTITLE4=Marc Moulin - Into The Dark
TTITLE5=Badmarsh and Shri - Mountain Party
TTITLE6=Gotan Project - Santa Maria (Del Buen Aire)
TTITLE7=Waldeck - This Isn't Maybe
TTITLE8=Julien Jabre - Voodance
TTITLE9=Frankie Knuckles Ft Nichi Richards - Keep On Movin'
TTITLE10=Mo'Horizons - Hit The Road Jack (Pena Estrada)
TTITLE11=Mr Scuff - Get A Move On
TTITLE12=Atjazz Ft Dawne B - Harmony
TTITLE13=Nathan Haines Ft Verna Francis - Earth Is The Place
TTITLE14=Rivera Rotation - On The Beach
TTITLE15=Negrocan - Aquela Esquina
EXTD=YEAR: 2001
EXTT0=
EXTT1=
EXTT2=
EXTT3=
EXTT4=
EXTT5=
EXTT6=
EXTT7=
EXTT8=
EXTT9=
EXTT10=
EXTT11=
EXTT12=
EXTT13=
EXTT14=
EXTT15=
PLAYORDER=
